<?xml version="1.0" encoding="UTF-8" standalone="no" ?>
<!DOCTYPE svg PUBLIC "-//W3C//DTD SVG 1.1//EN" "http://www.w3.org/Graphics/SVG/1.1/DTD/svg11.dtd">
<svg xmlns="http://www.w3.org/2000/svg" xmlns:xlink="http://www.w3.org/1999/xlink" version="1.1" width="400" height="400" viewBox="0 0 400 400" xml:space="preserve">
<desc>Created with Fabric.js 3.6.2</desc>
<defs>
</defs>
<g transform="matrix(2.22 0 0 2.22 200 200)" id="Facebook__x28_alt_x29_"  >
<path style="stroke: none; stroke-width: 1; stroke-dasharray: none; stroke-linecap: butt; stroke-dashoffset: 0; stroke-linejoin: miter; stroke-miterlimit: 4; fill: rgb(0,0,0); fill-rule: nonzero; opacity: 1;"  transform=" translate(-45, -45)" d="M 90 15 c 0 -7.9 -7.1 -15 -15 -15 H 15 C 7.1 0 0 7.1 0 15 v 60 c 0 7.9 7.1 15 15 15 h 30 V 56 H 34 V 41 h 11 v -5.8 C 45 25.1 52.6 16 61.9 16 H 74 v 15 H 61.9 c -1.3 0 -2.9 1.6 -2.9 4 v 6 h 15 v 15 H 59 v 34 h 16 c 7.9 0 15 -7.1 15 -15 V 15 z" stroke-linecap="round" />
</g>
</svg>